<?xml version="1.0" encoding="UTF-8"?>
<svg id="_圖層_1" data-name="圖層_1" xmlns="http://www.w3.org/2000/svg" version="1.1" viewBox="0 0 328.12 238.24">
  <!-- Generator: Adobe Illustrator 30.2.1, SVG Export Plug-In . SVG Version: 2.1.1 Build 1)  -->
  <defs>
    <style>
      .st0 {
        fill: #355dce;
      }
    </style>
  </defs>
  <path class="st0" d="M291.17,94.97c-19.73-20.59-90.2-67.25-115.23-78.06-23.64-10.2-50.82-3.93-53.39,24.32s-3.3,130.2,0,156.12c3.3,25.92,23.18,36.99,53.39,24.32,27.48-11.52,96.48-59.08,115.23-78.06,17.1-17.31,17.14-30.77,0-48.65Z"/>
  <path class="st0" d="M57.31,229.61c-15.66,0-25.77-9.06-28.35-24.01-4.11-23.78-4.4-149.96,0-173.11,2.5-13.16,12.69-24.01,28.35-24.01s26.8,7.39,28.35,24.01c4.54,48.67,3.09,157.44,0,173.11-3.73,18.89-12.69,24.01-28.35,24.01Z"/>
</svg>