<?xml version="1.0" encoding="UTF-8"?>
<svg id="_圖層_1" xmlns="http://www.w3.org/2000/svg" version="1.1" viewBox="0 0 328.12 238.24">
  <!-- Generator: Adobe Illustrator 30.2.1, SVG Export Plug-In . SVG Version: 2.1.1 Build 1)  -->
  <defs>
    <style>
      .st0 {
        fill: #facd40;
      }

      .st1 {
        fill: #355dce;
      }
    </style>
  </defs>
  <path class="st0" d="M291.17,93.5c-19.73-21.11-90.2-68.94-115.23-80.02-23.64-10.46-50.82-4.03-53.39,24.93s-3.3,133.48,0,160.05,23.18,37.92,53.39,24.93c27.48-11.81,96.48-60.57,115.23-80.02,17.1-17.75,17.14-31.54,0-49.87h0Z"/>
  <path class="st1" d="M57.31,228.61c-15.66,0-25.77-9.06-28.35-24.01-4.11-23.78-4.4-149.96,0-173.11,2.5-13.16,12.69-24.01,28.35-24.01s26.8,7.39,28.35,24.01c4.54,48.67,3.09,157.44,0,173.11-3.73,18.89-12.69,24.01-28.35,24.01h0Z"/>
</svg>