<?xml version="1.0" encoding="UTF-8"?>
<svg id="_圖層_1" data-name="圖層_1" xmlns="http://www.w3.org/2000/svg" version="1.1" viewBox="0 0 328.12 238.24">
  <!-- Generator: Adobe Illustrator 30.2.1, SVG Export Plug-In . SVG Version: 2.1.1 Build 1)  -->
  <defs>
    <style>
      .st0 {
        fill: #facd40;
      }

      .st1 {
        fill: #355dce;
      }
    </style>
  </defs>
  <path class="st1" d="M66.05,94.87c19.11-20.59,87.37-67.25,111.61-78.06,22.9-10.2,49.22-3.93,51.71,24.32,2.49,28.26,3.2,130.2,0,156.12s-22.45,36.99-51.71,24.32c-26.61-11.52-93.44-59.08-111.61-78.06-16.56-17.31-16.6-30.77,0-48.65Z"/>
  <path class="st1" d="M62.74,229.51c-19.59,0-32.25-9.06-35.48-24.01-5.14-23.78-5.51-149.96,0-173.11,3.13-13.16,15.88-24.01,35.48-24.01s33.54,7.39,35.48,24.01c5.68,48.67,3.87,157.44,0,173.11-4.66,18.89-15.88,24.01-35.48,24.01Z"/>
  <path class="st0" d="M66.05,94.87c-16.6,17.88-16.56,31.34,0,48.65,6.61,6.91,19.66,17.6,34.87,28.96,1.16-29.44,1.34-72.14-.22-106.54-14.95,11.08-27.89,21.64-34.65,28.93Z"/>
</svg>