<?xml version="1.0" encoding="UTF-8"?>
<svg id="_圖層_1" xmlns="http://www.w3.org/2000/svg" version="1.1" viewBox="0 0 328.12 238.24">
  <!-- Generator: Adobe Illustrator 30.2.1, SVG Export Plug-In . SVG Version: 2.1.1 Build 1)  -->
  <defs>
    <style>
      .st0 {
        fill: #facd40;
      }

      .st1 {
        fill: #355dce;
      }
    </style>
  </defs>
  <path class="st1" d="M102.9,229.61c-18.77,0-30.88-9.06-33.97-24.01-4.93-23.78-5.27-149.96,0-173.11,3-13.16,15.21-24.01,33.97-24.01s32.12,7.39,33.97,24.01c5.44,48.67,3.7,157.44,0,173.11-4.47,18.89-15.21,24.01-33.97,24.01Z"/>
  <path class="st0" d="M222.23,229.61c-18.77,0-30.88-9.06-33.97-24.01-4.93-23.78-5.27-149.96,0-173.11,3-13.16,15.21-24.01,33.97-24.01s32.12,7.39,33.97,24.01c5.44,48.67,3.7,157.44,0,173.11-4.47,18.89-15.21,24.01-33.97,24.01h0Z"/>
</svg>