<?xml version="1.0" encoding="UTF-8"?>
<svg id="_圖層_1" data-name="圖層_1" xmlns="http://www.w3.org/2000/svg" version="1.1" viewBox="0 0 231 257.03">
  <!-- Generator: Adobe Illustrator 30.2.1, SVG Export Plug-In . SVG Version: 2.1.1 Build 1)  -->
  <defs>
    <style>
      .st0 {
        fill: none;
        stroke: #facd40;
        stroke-miterlimit: 10;
        stroke-width: 22.9px;
      }

      .st1 {
        fill: #98dcbd;
      }

      .st2 {
        fill: #fefefe;
      }

      .st3 {
        fill: #355dce;
      }
    </style>
  </defs>
  <path class="st3" d="M165.95,164.34c-12.26-9.9-23.5-19.39-36.31-27.03,28.07-1.39,55.1-5.49,76.4-24.8,71.28-65.84-62.51-155.3-98.53-64.39-10.36,23.41-6.68,47.96-31.22,56.56-4.44,1.56-7.61-2.84-7.44-6.67s-.76-49.16-1.24-55.49c-1.29-16.99-13.66-30.5-30.5-30.5S9.06,22.01,6.6,42.52c-2.46,20.51-6.87,146.82,0,181.82,3.8,19.37,13.66,30.5,30.5,30.5s28.13-11.17,30.5-30.5c.88-7.13,1.19-57.29,1.38-60.15s1.64-6.96,7.97-5.3c28.41,7.48,38.37,39.43,49.11,60.78,16.33,32.44,51.22,43.89,73,26,14.83-12.18,14.1-31.25,7.5-43.67-10.33-19.44-31.94-30.67-40.61-37.67Z"/>
  <circle class="st1" cx="164.84" cy="66.34" r="45.33"/>
  <rect class="st2" x="181.78" y="30.79" width="16.14" height="16.14" rx="8.07" ry="8.07"/>
  <circle class="st0" cx="166.89" cy="65.84" r="49.5"/>
  <path class="st3" d="M185.94,63.2l-28.17-16.26c-3.09-1.78-6.95.45-6.95,4.02v32.52c0,3.57,3.86,5.8,6.95,4.02l28.17-16.26c3.09-1.78,3.09-6.25,0-8.03Z"/>
</svg>
